# xmcd
#
# Track frame offsets:
#	150
#	17990
#	30200
#	41927
#	52887
#	68340
#	79202
#	90732
#	103812
#	116287
#
# Disc length: 1703 seconds
# Revision: 3
# Processed by: cddbd v1.5.2PL0 Copyright (c) Steve Scherf et al.
# Submitted via: dBpowerAMP V12.0
#
DISCID=7306a50a
DTITLE=Various Artist - Country Nights: This Is Country
DYEAR=2000
DGENRE=Country
TTITLE0=Merle Haggard - I Think I'll Just Stay Here and Drink
TTITLE1=The Kendalls - Sweet Desire
TTITLE2=Patsy Cline - Walkin' After Midnight
TTITLE3=Bill Anderson - Wild Weekend
TTITLE4=Conway Twitty - Touch the Hand
TTITLE5=The Kendalls - You Make an Angel Want To Cheat
TTITLE6=Eddy Raven - I'm Gonna Get You
TTITLE7=Jerry Wallace - In the Misty Moonlight
TTITLE8=Jerry Wallace - Mr. Lonely
TTITLE9=Patsy Cline - Crazy Dreams
EXTD=
EXTT0=
EXTT1=
EXTT2=
EXTT3=
EXTT4=
EXTT5=
EXTT6=
EXTT7=
EXTT8=
EXTT9=
PLAYORDER=
